<?xml version="1.0" standalone="no"?>
<!DOCTYPE svg PUBLIC "-//W3C//DTD SVG 20010904//EN"
 "http://www.w3.org/TR/2001/REC-SVG-20010904/DTD/svg10.dtd">
<svg version="1.0" xmlns="http://www.w3.org/2000/svg"
 width="192.000000pt" height="192.000000pt" viewBox="0 0 192.000000 192.000000"
 preserveAspectRatio="xMidYMid meet">
<metadata>
Created by potrace 1.14, written by Peter Selinger 2001-2017
</metadata>
<g transform="translate(0.000000,192.000000) scale(0.100000,-0.100000)"
fill="#000000" stroke="none">
<path d="M658 1795 c-2 -2 -44 -5 -94 -6 -180 -3 -249 -31 -288 -113 -24 -51
-31 -216 -31 -716 0 -519 7 -665 34 -717 41 -80 87 -101 243 -111 155 -9 704
-9 865 0 230 13 266 50 279 288 16 271 9 934 -10 1080 -2 14 -7 50 -10 80 -16
131 -58 184 -154 195 -31 3 -70 9 -87 11 -34 6 -742 14 -747 9z"/>
</g>
</svg>
